 <svg version="1.0" xmlns="http://www.w3.org/2000/svg" width="700.000000pt" height="700.000000pt" viewBox="0 0 700.000000 700.000000" preserveAspectRatio="xMidYMid meet">
<metadata>
Created by potrace 1.12, written by Peter Selinger 2001-2015
</metadata>
<g transform="translate(0.000000,700.000000) scale(0.100000,-0.100000)" fill="#000000" stroke="none">
<path d="M1985 5445 c-139 -31 -254 -94 -349 -189 -64 -64 -79 -87 -386 -581
-106 -170 -199 -317 -207 -326 -15 -18 -12 -17 -253 -54 -265 -41 -276 -43
-340 -68 -96 -39 -168 -87 -244 -162 -82 -81 -135 -167 -174 -280 l-27 -80 0
-575 0 -575 32 -68 c41 -88 117 -164 208 -208 l70 -34 197 -3 198 -4 10 -41
c20 -75 32 -111 58 -167 106 -230 315 -403 562 -466 112 -28 318 -26 420 5
313 96 514 307 599 629 l12 42 1129 0 1129 0 11 -42 c20 -76 32 -112 58 -168
106 -230 315 -403 562 -466 112 -28 318 -26 420 5 312 96 514 307 599 628 l11
41 198 4 197 3 65 32 c117 57 188 137 230 258 19 55 20 84 20 530 0 445 -1
476 -21 551 -45 171 -150 317 -297 414 -128 84 -129 84 -952 219 -201 34 -390
66 -420 72 l-55 11 -280 376 c-154 207 -311 415 -348 462 -108 135 -210 208
-372 264 -59 20 -77 21 -1135 23 -873 1 -1086 -1 -1135 -12z m950 -685 l0
-415 -777 -3 c-428 -1 -778 0 -778 2 0 2 72 118 160 258 87 139 178 285 201
323 80 131 184 218 297 244 20 5 231 8 467 8 l430 -2 0 -415z m1265 397 c113
-44 140 -72 422 -447 147 -195 267 -358 267 -363 1 -4 -374 -6 -831 -5 l-833
3 -3 405 c-1 223 0 411 3 418 4 10 95 12 467 10 413 -3 468 -5 508 -21z
m-2526 -2237 c43 -11 101 -32 129 -47 67 -35 195 -163 230 -230 35 -66 67
-191 67 -263 0 -72 -32 -197 -67 -263 -35 -67 -163 -195 -230 -230 -66 -35
-191 -67 -263 -67 -72 0 -197 32 -263 67 -67 35 -195 163 -230 230 -35 66 -67
191 -67 263 0 72 32 197 67 263 36 67 163 195 230 230 68 36 183 66 259 66 33
1 96 -8 138 -19z m3920 0 c109 -28 170 -63 256 -150 87 -86 122 -147 150 -256
25 -98 25 -170 0 -268 -28 -109 -63 -170 -150 -256 -41 -42 -98 -88 -127 -103
-66 -35 -191 -67 -263 -67 -72 0 -197 32 -263 67 -67 35 -195 163 -230 230
-35 66 -67 191 -67 263 0 72 32 197 67 263 36 67 163 195 230 230 68 36 183
66 259 66 33 1 96 -8 138 -19z"></path>
</g>
</svg>