<?xml version="1.0" encoding="UTF-8"?>
<svg xmlns="http://www.w3.org/2000/svg" xmlns:xlink="http://www.w3.org/1999/xlink" width="27pt" height="27pt" viewBox="0 0 27 27" version="1.1">
<g id="surface1">
<path style=" stroke:none;fill-rule:nonzero;fill:rgb(0%,0%,0%);fill-opacity:1;" d="M 7.65625 5.996094 C 7.121094 6.117188 6.675781 6.359375 6.308594 6.726562 C 6.0625 6.972656 6.003906 7.0625 4.820312 8.96875 C 4.414062 9.625 4.054688 10.191406 4.023438 10.226562 C 3.964844 10.292969 3.976562 10.289062 3.046875 10.433594 C 2.023438 10.589844 1.984375 10.597656 1.734375 10.695312 C 1.367188 10.847656 1.085938 11.03125 0.792969 11.320312 C 0.476562 11.632812 0.273438 11.964844 0.125 12.402344 L 0.0195312 12.710938 L 0.0195312 17.144531 L 0.144531 17.40625 C 0.300781 17.746094 0.59375 18.039062 0.945312 18.210938 L 1.214844 18.339844 L 1.976562 18.351562 L 2.738281 18.367188 L 2.777344 18.527344 C 2.855469 18.816406 2.902344 18.953125 3 19.171875 C 3.410156 20.058594 4.214844 20.722656 5.167969 20.96875 C 5.601562 21.074219 6.394531 21.066406 6.789062 20.949219 C 7.996094 20.578125 8.769531 19.765625 9.097656 18.523438 L 9.144531 18.359375 L 17.855469 18.359375 L 17.898438 18.523438 C 17.972656 18.816406 18.019531 18.953125 18.121094 19.171875 C 18.53125 20.058594 19.335938 20.722656 20.289062 20.96875 C 20.71875 21.074219 21.515625 21.066406 21.910156 20.949219 C 23.113281 20.578125 23.890625 19.765625 24.21875 18.527344 L 24.261719 18.367188 L 25.023438 18.351562 L 25.785156 18.339844 L 26.035156 18.21875 C 26.488281 17.996094 26.761719 17.6875 26.921875 17.222656 C 26.996094 17.011719 27 16.898438 27 15.179688 C 27 13.460938 26.996094 13.34375 26.917969 13.050781 C 26.746094 12.394531 26.339844 11.828125 25.773438 11.457031 C 25.28125 11.132812 25.277344 11.132812 22.101562 10.609375 C 21.324219 10.480469 20.597656 10.355469 20.480469 10.332031 L 20.269531 10.289062 L 19.1875 8.839844 C 18.59375 8.042969 17.988281 7.238281 17.847656 7.058594 C 17.429688 6.539062 17.035156 6.257812 16.414062 6.039062 C 16.183594 5.964844 16.113281 5.960938 12.035156 5.953125 C 8.667969 5.949219 7.84375 5.957031 7.65625 5.996094 Z M 11.320312 8.640625 L 11.320312 10.242188 L 8.324219 10.253906 C 6.671875 10.257812 5.324219 10.253906 5.324219 10.246094 C 5.324219 10.238281 5.601562 9.789062 5.941406 9.25 C 6.277344 8.714844 6.625 8.148438 6.714844 8.003906 C 7.023438 7.5 7.425781 7.164062 7.859375 7.0625 C 7.9375 7.042969 8.75 7.03125 9.664062 7.03125 L 11.320312 7.039062 Z M 16.199219 7.109375 C 16.636719 7.277344 16.738281 7.386719 17.828125 8.832031 C 18.394531 9.585938 18.859375 10.214844 18.859375 10.234375 C 18.863281 10.25 17.414062 10.257812 15.652344 10.253906 L 12.4375 10.242188 L 12.425781 8.679688 C 12.425781 7.820312 12.425781 7.09375 12.4375 7.066406 C 12.453125 7.027344 12.804688 7.019531 14.242188 7.027344 C 15.832031 7.039062 16.046875 7.046875 16.199219 7.109375 Z M 6.457031 15.738281 C 6.621094 15.78125 6.847656 15.859375 6.953125 15.917969 C 7.210938 16.054688 7.707031 16.546875 7.839844 16.804688 C 7.976562 17.058594 8.101562 17.542969 8.101562 17.820312 C 8.101562 18.097656 7.976562 18.578125 7.839844 18.835938 C 7.707031 19.09375 7.210938 19.585938 6.953125 19.722656 C 6.699219 19.855469 6.21875 19.980469 5.941406 19.980469 C 5.664062 19.980469 5.179688 19.855469 4.925781 19.722656 C 4.667969 19.585938 4.171875 19.09375 4.039062 18.835938 C 3.902344 18.578125 3.78125 18.097656 3.78125 17.820312 C 3.78125 17.542969 3.902344 17.058594 4.039062 16.804688 C 4.175781 16.546875 4.667969 16.054688 4.925781 15.917969 C 5.1875 15.78125 5.632812 15.664062 5.925781 15.664062 C 6.050781 15.660156 6.292969 15.695312 6.457031 15.738281 Z M 21.578125 15.738281 C 21.996094 15.84375 22.234375 15.980469 22.5625 16.316406 C 22.898438 16.648438 23.035156 16.882812 23.144531 17.304688 C 23.238281 17.679688 23.238281 17.957031 23.144531 18.335938 C 23.035156 18.757812 22.898438 18.992188 22.5625 19.324219 C 22.40625 19.484375 22.1875 19.664062 22.074219 19.722656 C 21.820312 19.855469 21.335938 19.980469 21.058594 19.980469 C 20.78125 19.980469 20.300781 19.855469 20.046875 19.722656 C 19.789062 19.585938 19.292969 19.09375 19.160156 18.835938 C 19.023438 18.578125 18.898438 18.097656 18.898438 17.820312 C 18.898438 17.542969 19.023438 17.058594 19.160156 16.804688 C 19.296875 16.546875 19.789062 16.054688 20.046875 15.917969 C 20.308594 15.78125 20.75 15.664062 21.042969 15.664062 C 21.171875 15.660156 21.414062 15.695312 21.578125 15.738281 Z M 21.578125 15.738281 "/>
</g>
</svg>
