<?xml version="1.0" standalone="no"?>
<!DOCTYPE svg PUBLIC "-//W3C//DTD SVG 20010904//EN"
 "http://www.w3.org/TR/2001/REC-SVG-20010904/DTD/svg10.dtd">
<svg version="1.0" xmlns="http://www.w3.org/2000/svg"
 width="1080.000000pt" height="1080.000000pt" viewBox="0 0 1080.000000 1080.000000"
 preserveAspectRatio="xMidYMid meet">
<metadata>
Created by potrace 1.11, written by Peter Selinger 2001-2013
</metadata>
<g transform="translate(0.000000,1080.000000) scale(0.100000,-0.100000)"
fill="#000000" stroke="none">
<path d="M4975 10789 c-244 -18 -556 -63 -795 -115 -162 -35 -240 -56 -240
-64 0 -4 -26 -13 -57 -19 -71 -14 -523 -166 -532 -178 -3 -5 -22 -15 -41 -23
-135 -51 -358 -154 -370 -170 -3 -4 -39 -23 -80 -43 -115 -55 -262 -136 -274
-151 -6 -8 -33 -26 -60 -41 -58 -31 -215 -134 -234 -152 -7 -7 -61 -46 -120
-87 -59 -41 -127 -94 -152 -117 -25 -23 -61 -52 -80 -64 -19 -13 -60 -47 -90
-76 -30 -28 -80 -73 -110 -99 -63 -54 -305 -298 -348 -350 -15 -19 -52 -60
-81 -90 -29 -30 -63 -71 -76 -90 -12 -19 -41 -55 -64 -80 -23 -25 -75 -93
-116 -151 -41 -59 -80 -113 -87 -120 -19 -19 -121 -176 -153 -235 -15 -27 -33
-54 -41 -60 -15 -12 -96 -159 -151 -274 -20 -41 -39 -77 -43 -80 -13 -9 -124
-248 -170 -370 -8 -19 -17 -37 -20 -40 -17 -13 -146 -395 -177 -522 -9 -38
-19 -68 -23 -68 -20 0 -106 -419 -145 -710 -59 -444 -60 -1042 0 -1500 34
-265 125 -710 145 -710 4 0 14 -30 23 -68 31 -127 160 -509 177 -522 3 -3 12
-21 20 -40 46 -122 157 -361 170 -370 4 -3 23 -39 43 -80 61 -127 132 -254
160 -284 14 -15 29 -38 33 -49 6 -19 131 -216 144 -227 8 -7 108 -144 142
-195 14 -22 50 -65 78 -95 29 -30 55 -63 59 -72 20 -55 644 -679 699 -699 9
-4 42 -30 72 -58 30 -28 73 -64 95 -79 82 -56 190 -134 195 -141 9 -12 175
-118 212 -135 20 -10 49 -29 64 -42 25 -24 120 -78 274 -155 41 -21 80 -42 86
-47 24 -21 212 -108 344 -159 36 -13 67 -28 70 -32 11 -16 386 -144 520 -177
36 -9 67 -21 70 -25 8 -12 327 -83 505 -113 347 -57 585 -76 965 -76 479 1
846 42 1300 146 63 14 125 28 138 31 12 3 22 9 22 13 0 5 15 11 33 15 111 22
534 165 546 184 4 5 26 15 51 24 41 14 134 53 293 125 32 15 62 31 65 37 4 5
77 46 164 89 86 43 171 92 190 107 18 16 47 36 64 44 34 16 216 133 224 144 6
8 161 118 202 144 15 9 42 32 60 50 18 19 59 53 91 76 31 23 88 70 125 105 37
35 96 89 130 121 81 72 164 155 238 237 31 34 89 97 127 138 38 41 80 91 92
110 12 19 44 58 70 85 26 28 54 61 63 75 27 42 136 195 143 200 9 7 130 197
148 232 8 15 21 36 30 45 26 29 72 109 136 238 33 66 65 125 71 131 18 20 122
249 165 364 7 19 17 38 21 41 18 12 162 444 183 546 4 18 10 33 15 33 4 0 10
10 13 23 3 12 17 74 31 137 103 447 146 831 146 1310 0 371 -19 616 -76 955
-39 233 -100 505 -114 505 -4 0 -14 30 -23 68 -18 74 -124 401 -153 472 -10
25 -24 51 -31 58 -7 7 -13 18 -13 24 0 25 -148 355 -171 382 -6 6 -27 45 -48
86 -77 154 -131 249 -155 274 -13 15 -32 44 -42 64 -19 41 -123 201 -140 217
-10 9 -73 97 -136 190 -16 22 -53 67 -84 100 -31 33 -59 68 -63 78 -20 52
-626 658 -678 678 -10 4 -45 32 -78 63 -33 31 -78 68 -100 84 -93 63 -181 126
-190 136 -16 17 -176 121 -217 140 -20 10 -49 29 -64 42 -25 24 -120 78 -274
155 -41 21 -80 42 -86 47 -24 21 -212 108 -344 159 -36 13 -67 28 -70 32 -11
16 -386 144 -520 177 -36 9 -67 20 -70 24 -3 4 -43 17 -90 28 -314 77 -619
124 -974 152 -149 12 -659 11 -821 -1z m375 -1069 c235 -27 425 -114 567 -261
63 -66 103 -133 148 -251 30 -76 36 -107 41 -202 11 -195 -16 -333 -87 -451
-39 -65 -71 -84 -153 -92 -148 -14 -226 70 -226 243 0 68 -17 215 -30 259 -26
91 -36 116 -75 175 -63 99 -173 187 -277 222 -84 29 -229 31 -308 4 -95 -32
-344 -162 -434 -226 -26 -19 -56 -39 -65 -45 -40 -23 -212 -168 -365 -306
-105 -95 -447 -486 -534 -609 -32 -45 -113 -154 -133 -178 -27 -33 -207 -305
-252 -382 -159 -270 -278 -494 -350 -660 -8 -19 -29 -66 -47 -105 -51 -113
-55 -121 -134 -321 -41 -105 -78 -204 -82 -220 -4 -16 -13 -40 -20 -54 -7 -14
-22 -54 -33 -90 -11 -36 -28 -90 -39 -120 -18 -50 -32 -96 -76 -245 -30 -102
-98 -372 -126 -500 -34 -151 -87 -500 -102 -670 -24 -273 -24 -745 1 -960 30
-262 92 -497 182 -693 16 -35 29 -67 29 -72 0 -5 10 -26 22 -47 12 -21 29 -51
38 -68 78 -147 223 -342 297 -398 16 -11 46 -37 68 -57 22 -20 65 -50 95 -68
30 -18 62 -37 70 -42 8 -6 49 -26 91 -45 90 -41 199 -67 289 -67 76 -1 222 31
335 74 86 32 95 36 167 67 26 12 50 21 54 21 5 0 85 44 199 110 105 60 178
109 233 156 35 30 84 66 108 80 24 14 59 40 77 57 18 18 48 45 67 61 152 126
459 430 545 540 17 21 42 53 56 70 63 75 176 265 226 381 51 118 71 189 83
300 7 55 16 107 21 117 5 9 12 124 15 255 6 227 6 241 -15 310 -19 59 -23 99
-24 225 -2 153 -2 153 26 195 61 88 176 146 257 128 27 -6 32 -14 60 -103 92
-285 139 -627 126 -906 -28 -605 -244 -1096 -665 -1517 -147 -147 -257 -238
-393 -327 -47 -31 -100 -66 -117 -77 -17 -11 -115 -76 -218 -145 -104 -70
-206 -136 -228 -147 -61 -33 -215 -103 -226 -103 -6 0 -23 -7 -38 -15 -66 -34
-418 -126 -536 -140 -152 -19 -420 -19 -550 -1 -111 16 -359 93 -415 130 -19
12 -42 25 -51 28 -25 10 -189 127 -239 172 -25 23 -59 53 -75 67 -17 14 -48
48 -70 74 -22 27 -53 64 -70 81 -37 41 -209 326 -229 380 -8 21 -24 62 -36 89
-12 28 -30 68 -40 90 -10 22 -27 74 -39 115 -11 41 -34 122 -50 180 -33 117
-54 227 -79 405 -12 93 -16 206 -16 505 -1 422 7 529 65 905 30 196 76 435 93
484 9 24 16 52 16 63 0 17 52 207 126 463 14 50 34 108 44 131 10 22 27 74 39
115 11 41 44 133 72 204 28 72 55 144 61 160 5 17 16 44 23 60 8 17 26 61 41
99 14 38 30 77 34 85 4 9 23 50 40 91 18 41 47 107 65 145 18 39 40 86 49 105
34 75 179 346 207 387 16 24 29 48 29 52 0 5 16 32 35 61 19 29 35 55 35 58 0
8 181 282 197 300 7 7 40 54 74 103 34 50 80 111 103 137 23 26 52 63 65 82
24 34 67 87 146 179 22 26 63 73 90 106 52 61 268 280 370 376 33 31 121 102
195 159 74 57 137 106 140 109 3 4 25 19 50 35 25 16 58 38 73 48 59 41 315
175 382 200 105 40 253 86 315 99 137 27 356 36 500 19z m3041 -1720 c95 -5
190 -17 239 -29 46 -12 90 -21 100 -21 65 0 329 -142 425 -229 62 -56 148
-157 171 -201 13 -25 28 -52 33 -60 55 -95 133 -320 146 -420 3 -25 10 -67 15
-95 15 -82 11 -431 -5 -505 -8 -36 -14 -82 -15 -103 0 -21 -4 -46 -10 -56 -12
-23 -50 -165 -50 -188 0 -10 -6 -30 -14 -45 -8 -15 -17 -42 -21 -60 -11 -51
-111 -306 -126 -322 -5 -6 -9 -16 -9 -23 0 -7 -11 -34 -24 -61 -85 -170 -114
-224 -151 -282 -23 -36 -56 -91 -73 -122 -17 -32 -40 -70 -51 -85 -11 -16 -45
-68 -76 -118 -64 -103 -162 -244 -192 -278 -11 -12 -37 -46 -57 -76 -20 -29
-49 -70 -65 -90 -16 -20 -51 -63 -77 -96 -73 -92 -177 -219 -183 -225 -4 -3
-31 -34 -61 -70 -30 -36 -58 -67 -62 -70 -3 -3 -20 -23 -37 -44 -17 -21 -68
-79 -114 -128 -146 -160 -157 -172 -157 -180 0 -5 18 -5 40 -2 84 14 160 -28
175 -96 9 -40 -30 -124 -87 -186 -41 -45 -165 -114 -204 -114 -31 0 -290 -92
-412 -146 -29 -13 -59 -24 -68 -24 -32 0 -170 -88 -204 -131 -13 -16 -231
-196 -358 -296 -13 -10 -47 -36 -75 -59 -87 -67 -210 -162 -250 -191 -20 -16
-55 -41 -76 -58 -108 -83 -373 -268 -591 -412 -96 -64 -184 -122 -195 -129
-100 -68 -187 -124 -191 -124 -3 0 -31 -17 -62 -38 -31 -21 -99 -63 -150 -93
-51 -30 -105 -61 -120 -70 -15 -8 -65 -35 -111 -59 l-84 -44 -148 0 -148 -1
-30 29 c-17 16 -36 44 -42 63 -11 33 -5 116 11 158 27 68 444 494 577 587 66
47 141 114 161 144 11 17 35 38 54 47 18 8 54 35 79 60 31 29 61 48 92 55 25
7 58 22 74 35 15 13 78 54 138 92 61 37 128 80 150 94 22 14 50 31 63 38 13 7
35 21 49 33 14 11 30 20 36 20 6 0 25 11 43 25 18 14 35 25 39 25 3 0 24 12
48 27 23 14 80 46 127 70 47 23 112 59 145 78 33 19 69 39 80 44 11 5 89 43
174 85 85 41 168 80 186 86 90 30 746 678 981 969 10 13 29 33 41 45 12 11 44
48 70 82 26 33 83 103 125 155 43 52 84 103 92 114 9 11 32 40 52 65 20 25 55
72 77 105 23 33 62 88 89 122 26 34 48 66 49 70 0 4 22 40 48 78 87 125 230
366 281 470 18 36 118 251 141 300 8 18 74 211 98 290 46 146 71 327 71 510 0
177 -11 263 -51 390 -78 250 -233 429 -449 518 -132 55 -182 62 -425 61 -229
0 -334 -12 -570 -65 -293 -66 -627 -174 -910 -296 -71 -30 -454 -220 -505
-250 -19 -11 -64 -37 -100 -58 -36 -21 -82 -47 -102 -59 -135 -78 -543 -368
-647 -460 -19 -17 -62 -56 -96 -86 -33 -30 -120 -108 -191 -172 -185 -167
-328 -325 -341 -377 -10 -41 -42 -80 -83 -101 -56 -29 -211 -29 -258 0 -47 29
-72 76 -72 135 0 84 48 158 234 358 132 143 456 447 569 534 178 138 239 183
247 183 4 0 10 4 12 9 3 8 223 161 232 161 3 0 25 13 48 29 230 155 824 446
1098 538 107 36 141 48 172 64 10 5 29 9 43 9 14 0 40 7 58 17 33 17 139 47
217 63 25 5 74 18 110 29 36 11 75 21 88 21 12 0 62 9 110 20 155 34 364 64
502 70 209 10 244 10 411 0z"/>
</g>
</svg>
